<svg xmlns="http://www.w3.org/2000/svg" viewBox="20 12 182 196" role="img" aria-labelledby="title"><title id="title">Revida Maison — small-use perspective-frame symbol</title><rect x="20" y="12" width="182" height="196" fill="#EEEAE2" /><g transform="translate(31 24) scale(1.0)"><defs><mask id="symbol-channels" maskUnits="userSpaceOnUse" x="-2" y="-2" width="162" height="175"><path fill="white" d="M-2-2H160V173H-2Z" /><path d="M40 24H135V150H40 M40 25 69 59 135 39 M69 59V122L40 127 M69 122 115 123 135 141 M115 46V135 M83 76 115 74 M83 76V121H115" fill="none" stroke="black" stroke-width="3" stroke-linejoin="miter" /></mask></defs><g mask="url(#symbol-channels)"><path id="symbol-left-face" fill="#413B29" d="M0 14 16 0 16 171H0Z" /><path id="symbol-top-frame" fill="#413B29" d="M16 0H158L135 24H40Z" /><path id="symbol-right-frame" fill="#413B29" d="M158 0V171H16L40 150H135V24Z" /><path id="symbol-ceiling" fill="#413B29" d="M40 25H135V39L69 59Z" /><path id="symbol-left-wall" fill="#413B29" d="M40 27 68 59 63 123 40 127Z" /><path id="symbol-rear-plane" fill="#413B29" d="M83 76 115 74V121H83Z" /><path id="symbol-floor" fill="#413B29" d="M40 127 69 122 115 123 135 141 40 148Z" /><path id="symbol-floor-light" fill="#413B29" d="M40 148 135 141V150H40Z" /><path id="symbol-right-wall" fill="#413B29" d="M135 39V141L115 135V46Z" /></g></g></svg>
